<svg width="20" height="16" viewBox="0 0 20 16" fill="none" xmlns="http://www.w3.org/2000/svg">
<path fill-rule="evenodd" clip-rule="evenodd" d="M9.53119 15.5312C9.23114 15.8311 8.82425 15.9997 8.39999 15.9997C7.97573 15.9997 7.56883 15.8311 7.26879 15.5312L0.868788 9.13119C0.568834 8.83115 0.40033 8.42426 0.40033 7.99999C0.40033 7.57573 0.568834 7.16884 0.868788 6.86879L7.26879 0.468793C7.57055 0.17734 7.97471 0.0160683 8.39423 0.0197138C8.81374 0.0233593 9.21504 0.19163 9.5117 0.488283C9.80835 0.784936 9.97662 1.18624 9.98027 1.60575C9.98391 2.02527 9.82264 2.42943 9.53119 2.73119L5.86239 6.39999H18C18.4243 6.39999 18.8313 6.56856 19.1314 6.86862C19.4314 7.16868 19.6 7.57565 19.6 7.99999C19.6 8.42434 19.4314 8.8313 19.1314 9.13136C18.8313 9.43142 18.4243 9.59999 18 9.59999H5.86239L9.53119 13.2688C9.83114 13.5688 9.99965 13.9757 9.99965 14.4C9.99965 14.8243 9.83114 15.2311 9.53119 15.5312Z" fill="white"/>
</svg>
